<svg width="54" height="54" viewBox="0 0 54 54" fill="none" xmlns="http://www.w3.org/2000/svg">
<path d="M16.5827 4.54257C19.7491 3.07132 23.2786 2.25 27 2.25C33.9795 2.25 40.2842 5.139 44.7836 9.78641M16.5827 4.54257C20.4781 9.25409 24.1936 14.5396 27.5849 20.3041M16.5827 4.54257C8.90964 8.10788 3.36948 15.4899 2.40107 24.2499M27.5849 20.3041C35.0507 17.7507 41.0542 14.1015 44.7836 9.78641M27.5849 20.3041C27.7627 20.6063 27.9396 20.9098 28.1156 21.2146C29.4798 23.5774 30.7488 25.9485 31.9219 28.3164M27.5849 20.3041C20.3245 22.7873 11.681 24.2343 2.40107 24.2499M44.7836 9.78641C49.096 14.2408 51.75 20.3104 51.75 27C51.75 27.389 51.741 27.7759 51.7233 28.1605M11.3142 46.1456C5.78054 41.6066 2.25 34.7156 2.25 27C2.25 26.0704 2.30125 25.1528 2.40107 24.2499M11.3142 46.1456C13.7869 37.7864 21.6707 31.0493 31.9219 28.3164M11.3142 46.1456C15.5841 49.648 21.0466 51.75 27 51.75C31.6106 51.75 35.9268 50.4893 39.6225 48.2938M31.9219 28.3164C35.123 27.463 38.5549 27 42.125 27C45.4712 27 48.6961 27.4067 51.7233 28.1605M31.9219 28.3164C35.2792 35.0926 37.8515 41.8422 39.6225 48.2938M51.7233 28.1605C51.3276 36.7321 46.5718 44.1655 39.6225 48.2938" stroke="#00275C" stroke-width="4" stroke-linecap="round" stroke-linejoin="round"/>
</svg>
