<svg width="66" height="57" viewBox="0 0 66 57" fill="none" xmlns="http://www.w3.org/2000/svg">
<path d="M31 46.5C31 47.6046 31.8954 48.5 33 48.5C34.1046 48.5 35 47.6046 35 46.5H31ZM33 32.75H35C35 32.2196 34.7893 31.7109 34.4142 31.3358L33 32.75ZM23.375 23.125L22.058 21.6198C21.6414 21.9844 21.3945 22.5052 21.3761 23.0584C21.3577 23.6117 21.5694 24.1478 21.9608 24.5392L23.375 23.125ZM34.375 13.5L35.8935 12.1984C35.546 11.793 35.0508 11.5434 34.5182 11.5051C33.9856 11.4669 33.4598 11.6432 33.058 11.9948L34.375 13.5ZM50.875 26.5C51.9796 26.5 52.875 25.6046 52.875 24.5C52.875 23.3954 51.9796 22.5 50.875 22.5V26.5ZM22.75 43.75C22.75 48.7206 18.7206 52.75 13.75 52.75V56.75C20.9297 56.75 26.75 50.9297 26.75 43.75H22.75ZM13.75 52.75C8.77944 52.75 4.75 48.7206 4.75 43.75H0.75C0.75 50.9297 6.5703 56.75 13.75 56.75V52.75ZM4.75 43.75C4.75 38.7794 8.77944 34.75 13.75 34.75V30.75C6.5703 30.75 0.75 36.5703 0.75 43.75H4.75ZM13.75 34.75C18.7206 34.75 22.75 38.7794 22.75 43.75H26.75C26.75 36.5703 20.9297 30.75 13.75 30.75V34.75ZM35 46.5V32.75H31V46.5H35ZM34.4142 31.3358L24.7892 21.7108L21.9608 24.5392L31.5858 34.1642L34.4142 31.3358ZM24.692 24.6302L35.692 15.0052L33.058 11.9948L22.058 21.6198L24.692 24.6302ZM32.8565 14.8016C34.2589 16.4377 36.8314 19.3013 39.937 21.769C42.9712 24.1799 46.8655 26.5 50.875 26.5V22.5C48.2845 22.5 45.3038 20.9243 42.4255 18.6373C39.6186 16.407 37.2411 13.7706 35.8935 12.1984L32.8565 14.8016ZM61.25 43.75C61.25 48.7206 57.2206 52.75 52.25 52.75V56.75C59.4297 56.75 65.25 50.9297 65.25 43.75H61.25ZM52.25 52.75C47.2794 52.75 43.25 48.7206 43.25 43.75H39.25C39.25 50.9297 45.0703 56.75 52.25 56.75V52.75ZM43.25 43.75C43.25 38.7794 47.2794 34.75 52.25 34.75V30.75C45.0703 30.75 39.25 36.5703 39.25 43.75H43.25ZM52.25 34.75C57.2206 34.75 61.25 38.7794 61.25 43.75H65.25C65.25 36.5703 59.4297 30.75 52.25 30.75V34.75ZM44.75 5.25C44.75 5.66421 44.4142 6 44 6V10C46.6234 10 48.75 7.87335 48.75 5.25H44.75ZM44 6C43.5858 6 43.25 5.66421 43.25 5.25H39.25C39.25 7.87335 41.3766 10 44 10V6ZM43.25 5.25C43.25 4.83579 43.5858 4.5 44 4.5V0.5C41.3766 0.5 39.25 2.62665 39.25 5.25H43.25ZM44 4.5C44.4142 4.5 44.75 4.83579 44.75 5.25H48.75C48.75 2.62665 46.6234 0.5 44 0.5V4.5Z" fill="#00275C"/>
</svg>
