<svg width="100" height="100" viewBox="0 0 100 100" fill="none" xmlns="http://www.w3.org/2000/svg">
<path d="M89.2302 17.1205C88.4237 14.0627 86.0212 11.6601 82.9634 10.8369C78.9479 9.76159 72.6811 8.48471 65.3559 8.3335L91.6663 34.6776C91.5319 27.3691 90.2887 21.1359 89.2302 17.1205ZM10.7692 82.8799C11.5756 85.9377 13.9782 88.3402 17.036 89.1635C21.0514 90.2387 27.3182 91.5156 34.6435 91.6668L8.33301 65.3227C8.46742 72.6312 9.7107 78.8644 10.7692 82.8799ZM9.03865 54.6037L45.3626 90.9948C67.624 87.7354 87.1637 71.0519 90.9775 45.3967L54.6368 9.00554C32.3753 12.2649 12.8357 28.9484 9.03865 54.6037ZM62.3485 33.8375C62.8693 33.3167 63.7262 33.3167 64.247 33.8375L66.1455 35.7361C66.6663 36.2569 66.6663 37.1137 66.1455 37.6346L61.3908 42.3893L66.1455 47.144C66.6663 47.6648 66.6663 48.5217 66.1455 49.0425L64.247 50.941C63.7262 51.4619 62.8693 51.4619 62.3485 50.941L57.5938 46.1863L53.7967 50.0002L58.5514 54.7549C59.0723 55.2757 59.0723 56.1326 58.5514 56.6534L56.6529 58.5519C56.1321 59.0727 55.2752 59.0727 54.7544 58.5519L49.9997 53.7972L46.2026 57.5943L50.9573 62.349C51.4782 62.8698 51.4782 63.7266 50.9573 64.2475L49.0588 66.146C48.538 66.6668 47.6811 66.6668 47.1603 66.146L42.4056 61.3913L37.6509 66.146C37.1301 66.6668 36.2732 66.6668 35.7524 66.146L33.8538 64.2475C33.333 63.7266 33.333 62.8698 33.8538 62.349L38.6085 57.5943L33.8538 52.8563C33.333 52.3355 33.333 51.4787 33.8538 50.9578L35.7524 49.0593C36.2732 48.5385 37.1301 48.5385 37.6509 49.0593L42.4056 53.814L46.2026 50.017L41.4479 45.2623C40.9271 44.7414 40.9271 43.8846 41.4479 43.3637L43.3464 41.4652C43.8673 40.9444 44.7241 40.9444 45.245 41.4652L49.9997 46.2199L53.7967 42.4229L49.042 37.6682C48.5212 37.1473 48.5212 36.2905 49.042 35.7697L50.9405 33.8711C51.4614 33.3503 52.3182 33.3503 52.8391 33.8711L57.5938 38.6258L62.3485 33.8375Z" fill="#00275C"/>
</svg>
