<svg width="100" height="100" viewBox="0 0 100 100" fill="none" xmlns="http://www.w3.org/2000/svg">
<path d="M31.9265 85.1923C31.2299 87.9853 32.9258 90.8124 35.7154 91.509C36.1402 91.6164 36.565 91.6636 36.9849 91.6636C39.3173 91.6636 41.4396 90.0848 42.0337 87.72L46.1417 71.2864L37.5513 62.696L31.9265 85.1923ZM34.3499 53.2724L41.049 27.3761C41.4054 26.0057 40.5379 24.6174 39.1089 24.2739C31.9671 22.5617 24.7293 26.7267 22.9439 33.5788L18.831 49.5501C18.4746 50.9206 19.3421 52.3089 20.7711 52.6523L31.1159 55.1343C32.5466 55.4761 33.9935 54.6428 34.3499 53.2724ZM78.6459 34.3747H76.0418C74.603 34.3747 73.4377 35.54 73.4377 36.9788V39.5829H67.7819L60.1681 31.9691C58.3631 30.1609 55.9592 29.1664 53.4039 29.1664C49.0062 29.1664 45.1895 32.1449 44.1219 36.4124L39.7404 53.9446C39.5225 54.8172 39.5342 55.7314 39.7743 56.5981C40.0145 57.4649 40.4749 58.2547 41.1108 58.8908L55.2089 72.9888V86.457C55.2089 89.3329 57.5412 91.6652 60.4171 91.6652C63.293 91.6652 65.6253 89.3329 65.6253 86.457V72.9888C65.6253 70.2073 64.5414 67.5918 62.5736 65.624L54.9533 58.0037C54.9778 57.9224 55.0331 57.8589 55.0543 57.7743L58.2915 44.8237L61.9421 48.4743C62.9187 49.4509 64.2435 50.001 65.6237 50.001H73.4361V89.0627C73.4361 90.5015 74.6014 91.6668 76.0402 91.6668H78.6443C80.0831 91.6668 81.2484 90.5015 81.2484 89.0627V36.9788C81.25 35.54 80.0847 34.3747 78.6459 34.3747ZM57.813 23.9582C62.1277 23.9582 65.6253 20.4605 65.6253 16.1458C65.6253 11.8311 62.1277 8.3335 57.813 8.3335C53.4983 8.3335 50.0006 11.8311 50.0006 16.1458C50.0006 20.4605 53.4983 23.9582 57.813 23.9582Z" fill="#00275C"/>
</svg>
