<svg width="100" height="100" viewBox="0 0 100 100" fill="none" xmlns="http://www.w3.org/2000/svg">
<path d="M44.7505 29.6144L33.4989 10.8628C33.0363 10.0914 32.3817 9.45299 31.5991 9.00974C30.8164 8.56649 29.9322 8.33351 29.0328 8.3335H10.9419C8.83419 8.3335 7.60047 10.7049 8.80815 12.4318L26.9185 38.3042C31.7557 33.7843 37.9081 30.6821 44.7505 29.6144ZM89.0572 8.3335H70.9664C69.1369 8.3335 67.441 9.29378 66.5002 10.8628L55.2486 29.6144C62.091 30.6821 68.2434 33.7843 73.0806 38.3026L91.191 12.4318C92.3986 10.7049 91.1649 8.3335 89.0572 8.3335ZM49.9996 34.3752C34.1792 34.3752 21.3537 47.2007 21.3537 63.021C21.3537 78.8413 34.1792 91.6668 49.9996 91.6668C65.8199 91.6668 78.6454 78.8413 78.6454 63.021C78.6454 47.2007 65.8199 34.3752 49.9996 34.3752ZM65.0581 59.9709L58.8846 65.9865L60.3446 74.4858C60.605 76.0093 59.0002 77.173 57.6346 76.4536L49.9996 72.4416L42.3661 76.4536C40.9989 77.1779 39.3957 76.0077 39.6561 74.4858L41.1161 65.9865L34.9426 59.9709C33.8326 58.8901 34.4462 57.0037 35.9761 56.7824L44.5096 55.5389L48.3231 47.8045C48.6665 47.1079 49.3306 46.7645 49.9963 46.7645C50.6652 46.7645 51.3342 47.1128 51.6776 47.8045L55.4911 55.5389L64.0246 56.7824C65.5546 57.0037 66.1682 58.8901 65.0581 59.9709Z" fill="#00275C"/>
</svg>
