<svg width="100" height="100" viewBox="0 0 100 100" fill="none" xmlns="http://www.w3.org/2000/svg">
<path d="M45.8665 47.8902C45.7376 41.7828 44.4433 35.7562 42.0533 30.1343C26.8003 37.2569 15.5958 50.6956 11.7657 66.5533C14.0071 71.6888 17.2576 76.3217 21.324 80.1768C25.1911 66.73 33.9447 55.2143 45.8665 47.8902V47.8902ZM39.6679 25.3132C37.113 20.8619 33.8571 16.8516 30.0256 13.4367C14.739 21.8023 5.70151 39.1215 9.02759 57.4821C14.6383 43.5227 25.5572 31.9486 39.6679 25.3132ZM71.1817 53.0474C72.6263 36.2826 66.5957 19.8705 54.8032 8.63238C52.3339 8.3468 46.1353 7.70847 38.1896 10.0602C47.9111 20.134 53.5136 33.4793 53.8961 47.4736C59.2496 50.4174 65.117 52.3094 71.1817 53.0474V53.0474ZM50.2341 54.6432C45.0092 57.8154 40.4368 61.9545 36.7618 66.8388C50.5364 76.4643 67.7548 79.4544 83.3773 74.8685C86.7378 70.3661 89.1494 65.2284 90.4663 59.7667C86.024 60.8986 81.4604 61.4853 76.8763 61.5138C67.7044 61.497 58.5829 59.1452 50.2341 54.6432ZM33.7212 71.3912C31.1679 75.7588 29.4041 80.5295 28.329 85.5355C35.7806 90.1091 44.4864 92.2126 53.2042 91.546C61.9221 90.8793 70.2067 87.4765 76.8763 81.823C57.9109 84.5276 42.7252 77.657 33.7212 71.3912V71.3912ZM64.0088 10.8162C73.2983 22.6422 77.8674 37.8952 76.5404 53.4169C81.658 53.4277 86.7445 52.6225 91.6085 51.0315C91.6085 50.6956 91.6589 50.3596 91.6589 50.0236C91.6589 31.915 80.1184 16.578 64.0088 10.8162V10.8162Z" fill="#00275C"/>
</svg>
